<svg xmlns="http://www.w3.org/2000/svg" width="128" height="128" viewBox="0 0 128 128" role="img" aria-label="sifxtreme">
  <rect width="128" height="128" rx="28" fill="#ea580c"/>
  <g transform="translate(31.8372 98.5970) scale(0.103584 -0.103584)"><path d="M169 209Q183 161 221.0 138.0Q259 115 315 115Q336 115 357.5 118.5Q379 122 396.0 130.5Q413 139 423.5 152.5Q434 166 434 185Q434 220 400.0 239.0Q366 258 312 269L231 285Q190 293 153.0 307.5Q116 322 88.5 344.5Q61 367 44.5 398.5Q28 430 28 473Q28 527 53.5 566.0Q79 605 119.5 630.5Q160 656 210.5 668.0Q261 680 311 680Q352 680 391.0 672.0Q430 664 464.0 646.5Q498 629 524.5 601.5Q551 574 567 535L424 483Q410 517 377.5 535.0Q345 553 297 553Q251 553 220.5 536.5Q190 520 190 489Q190 463 210.5 445.5Q231 428 266 421L356 403Q397 395 439.5 383.0Q482 371 516.5 349.5Q551 328 573.5 294.5Q596 261 596 209Q596 156 571.5 114.5Q547 73 507.0 45.0Q467 17 416.5 2.5Q366 -12 314 -12Q204 -12 130.0 32.0Q56 76 25 157L169 209Z" fill="#fdfbf8"/></g>
</svg>
